<svg xmlns="http://www.w3.org/2000/svg" viewBox="0 0 512 512">
  <defs>
    <radialGradient id="glow" cx="50%" cy="40%" r="50%">
      <stop offset="0%" stop-color="#ff2a4a" stop-opacity="0.3"/>
      <stop offset="100%" stop-color="#ff2a4a" stop-opacity="0"/>
    </radialGradient>
  </defs>
  <!-- Background -->
  <rect width="512" height="512" fill="#0a0a0f"/>
  <rect width="512" height="512" fill="url(#glow)"/>
  <!-- Ghost body -->
  <path d="M166 200
           C166 120, 220 80, 256 80
           C292 80, 346 120, 346 200
           L346 320
           C346 340, 330 360, 310 340
           L296 320
           C282 304, 270 320, 256 340
           C242 320, 230 304, 216 320
           L202 340
           C182 360, 166 340, 166 320 Z"
        fill="#1a1a2e" stroke="#ff2a4a" stroke-width="4"/>
  <!-- Eyes -->
  <ellipse cx="224" cy="200" rx="16" ry="20" fill="#ff2a4a"/>
  <ellipse cx="288" cy="200" rx="16" ry="20" fill="#ff2a4a"/>
  <!-- Eye pupils -->
  <ellipse cx="224" cy="200" rx="6" ry="8" fill="#0a0a0f"/>
  <ellipse cx="288" cy="200" rx="6" ry="8" fill="#0a0a0f"/>
  <!-- Glitch lines -->
  <line x1="160" y1="260" x2="196" y2="260" stroke="#ff2a4a44" stroke-width="2"/>
  <line x1="316" y1="260" x2="352" y2="260" stroke="#ff2a4a44" stroke-width="2"/>
</svg>
